<!DOCTYPE svg PUBLIC "-//W3C//DTD SVG 1.1//EN" "http://www.w3.org/Graphics/SVG/1.1/DTD/svg11.dtd">
<!-- Uploaded to: SVG Repo, www.svgrepo.com, Transformed by: SVG Repo Mixer Tools -->
<svg fill="#000000" height="800px" width="800px" version="1.1" id="Layer_1" xmlns="http://www.w3.org/2000/svg" xmlns:xlink="http://www.w3.org/1999/xlink" viewBox="0 0 512 512" xml:space="preserve">
<g id="SVGRepo_bgCarrier" stroke-width="0"/>
<g id="SVGRepo_tracerCarrier" stroke-linecap="round" stroke-linejoin="round"/>
<g id="SVGRepo_iconCarrier"> <g> <g> <path d="M427.759,220.723c4.838-12.407,7.441-28.595,7.441-50.21C435.2,60.646,371.465,0,256,0S76.8,60.646,76.8,170.513 c0,21.615,2.594,37.803,7.441,50.21C64.06,234.684,51.2,252.279,51.2,273.937c0,27.605,9.617,37.53,31.829,39.834 C90.914,424.806,165.12,512,256,512s165.086-87.194,172.971-198.229c22.204-2.304,31.829-12.228,31.829-39.834 C460.8,252.279,447.932,234.684,427.759,220.723z M256,25.6c101.922,0,153.6,48.751,153.6,144.913 c0,16.657-1.468,28.45-4.326,37.35C363.46,188.314,305.152,179.2,256,179.2s-107.46,9.114-149.274,28.663 c-2.859-8.9-4.326-20.693-4.326-37.35C102.4,74.351,154.078,25.6,256,25.6z M256,486.4c-76.732,0-139.699-75.767-147.345-172.416 c32.538-1.732,80.384-8.465,147.345-8.465c66.97,0,114.807,6.724,147.345,8.465C395.699,410.633,332.732,486.4,256,486.4z M433.86,286.737c-0.606,0.35-4.215,2.057-17.058,2.057c-11.554,0-26.377-1.297-45.15-2.935 c-30.242-2.645-67.883-5.931-115.652-5.931c-47.761,0-85.402,3.294-115.644,5.931c-18.773,1.638-33.604,2.935-45.158,2.935 c-12.595,0-16.307-1.638-16.631-1.638c-0.026,0-0.026,0.009-0.017,0.026c-0.017-0.026-1.749-2.884-1.749-13.244 c0-40.747,94.438-69.137,179.2-69.137s179.2,28.39,179.2,69.137C435.2,283.452,433.732,286.635,433.86,286.737z"/> </g> </g> <g> <g> <path d="M359.953,124.254c-5.001-5-13.099-5-18.099,0c-5.001,5.001-13.099,5.001-18.099,0c-2.432-2.423-3.755-5.641-3.755-9.054 c0-3.422,1.323-6.622,3.746-9.054c5-5,13.099-5,18.099,0c5,5.001,13.099,5.001,18.099,0c5.001-5,5.001-13.099,0-18.099 c-14.95-14.976-39.347-14.959-54.298-0.009c-3.831,3.831-6.682,8.354-8.593,13.261h-82.125c-1.903-4.907-4.762-9.429-8.593-13.252 c-14.95-14.976-39.347-14.976-54.298,0c-5.001,5.001-5.001,13.099,0,18.099s13.099,5.001,18.099,0 c5.001-4.975,13.099-4.983,18.099,0.009c2.423,2.415,3.746,5.615,3.746,9.037c0,3.413-1.323,6.622-3.746,9.054 c-4.983,5.009-13.09,5.009-18.091,0.008c-5.001-5-13.099-5-18.099,0c-5.001,5.001-5.001,13.099,0,18.099 c7.475,7.484,17.323,11.221,27.153,11.221s19.678-3.738,27.153-11.221c4.386-4.386,7.415-9.702,9.25-15.454h80.794 c1.843,5.743,4.864,11.068,9.25,15.454c7.475,7.484,17.323,11.221,27.153,11.221s19.678-3.738,27.153-11.221 C364.954,137.353,364.954,129.254,359.953,124.254z"/> </g> </g> </g>
</svg>